# xmcd
#
# Track frame offsets: 
#        150
#        73635
#        131057
#        191957
#        229403
#        265094
#        303743
#
# Disc length: 4448 seconds
#
# Revision: 1
# Processed by: cddbd v1.5.2PL0 Copyright (c) Steve Scherf et al.
# Submitted via: ExactAudioCopy v1.0b3
#
DISCID=6c115e07
DTITLE=Gautier Capuçon - Paavo Järvi, Frankfurt Radio Symphony Orchest
DTITLE=ra - Dvořák, Herbert Cello Concertos [Virgin]
DYEAR=2009
DGENRE=Classical
TTITLE0=Dvořák: Cello Concerto in B minor, op.104 - 1. Allegro
TTITLE1=Dvořák: Cello Concerto in B minor, op.104 - 2. Adagio, ma non 
TTITLE1=troppo
TTITLE2=Dvořák: Cello Concerto in B minor, op.104 - 3. Finale. Allegro
TTITLE2=moderato
TTITLE3=Victor Herbert: Cello Concerto no.2 in E minor, op.30 - 1. All
TTITLE3=egro impetuoso
TTITLE4=Victor Herbert: Cello Concerto no.2 in E minor, op.30 - 2. And
TTITLE4=ante tranquillo
TTITLE5=Victor Herbert: Cello Concerto no.2 in E minor, op.30 - 3. All
TTITLE5=egro
TTITLE6=Data Track
EXTD=
EXTT0=
EXTT1=
EXTT2=
EXTT3=
EXTT4=
EXTT5=
EXTT6=
PLAYORDER=
